<?xml version="1.0" standalone="no"?>
<!DOCTYPE svg PUBLIC "-//W3C//DTD SVG 1.1//EN" "http://www.w3.org/Graphics/SVG/1.1/DTD/svg11.dtd">
<svg xmlns="http://www.w3.org/2000/svg" xmlns:xlink="http://www.w3.org/1999/xlink" xmlns:xodm="http://www.corel.com/coreldraw/odm/2003" xml:space="preserve" width="82900000" height="45890000" version="1.1" style="shape-rendering:geometricPrecision; text-rendering:geometricPrecision; image-rendering:optimizeQuality; fill-rule:evenodd; clip-rule:evenodd" viewBox="0 0 82900000 45890000">
 <defs>
  <style type="text/css">
   <![CDATA[
    .fil0 {fill:#FEFEFE}
   ]]>
  </style>
 </defs>
 <g id="Warstwa_x0020_1">
  <metadata id="CorelCorpID_0Corel-Layer"/>
  <path class="fil0" d="M66760000 28503000c-310000,1471000 -1951000,2717000 -3584000,2717000l-744000 0c-1649000,0 -3272000,-1242000 -3543000,-2717000 -368000,-1756000 -368000,-5838000 1000,-7640000 270000,-1469000 1893000,-2712000 3542000,-2712000l744000 0c1633000,0 3274000,1245000 3584000,2712000 327000,1800000 327000,5886000 0,7640000zm15207000 17387000l-81967000 0 0 -45890000 82899000 0c1000,15297000 1000,30593000 0,45890000l-932000 0zm-80103000 -1864000l79171000 0 0 -42161000 -79171000 0 0 42161000zm30469000 -27362000l-4153000 16019000 -1773000 0 -3218000 -12048000 -3217000 12048000 -1773000 0 -4112000 -16019000 1927000 0 3095000 12035000 3216000 -12035000 1730000 0 3216000 12039000 3137000 -12039000 1925000 0zm4904000 -2789000l-1871000 0 0 -2861000 1871000 0 0 2861000zm0 18808000l-1871000 0 0 -16019000 1871000 0 0 16019000zm14379000 -4137000c-267000,1447000 -1889000,2671000 -3544000,2671000l-741000 0c-1570000,0 -3099000,-1075000 -3499000,-2455000l-19000 -8094000c412000,-1425000 1941000,-2538000 3499000,-2538000l742000 0c1649000,0 3272000,1241000 3545000,2717000 364000,1745000 383000,5909000 17000,7699000zm1843000 -8078000c-251000,-1132000 -919000,-2171000 -1936000,-3011000 -1044000,-783000 -2244000,-1198000 -3469000,-1198000l-742000 0c-1199000,0 -2385000,415000 -3429000,1198000 -24000,18000 -47000,37000 -70000,54000l0 -6508000 -1871000 0 0 19274000c0,242000 -544000,707000 -981000,1079000l-299000 256000 1173000 1439000 165000 -133000c549000,-439000 1090000,-839000 1449000,-1380000 125000,118000 273000,232000 453000,352000 1046000,785000 2230000,1198000 3429000,1198000l741000 0c1226000,0 2425000,-413000 3473000,-1201000 968000,-756000 1672000,-1837000 1934000,-2973000 376000,-2001000 357000,-6438000 -20000,-8446000zm15123000 28000c-217000,-1129000 -903000,-2200000 -1938000,-3017000 -1043000,-784000 -2244000,-1199000 -3468000,-1199000l-744000 0c-1206000,0 -2438000,426000 -3476000,1204000 -985000,813000 -1670000,1881000 -1930000,3013000 -377000,2012000 -377000,6366000 1000,8384000 253000,1133000 919000,2173000 1937000,3013000 1030000,772000 2262000,1197000 3468000,1197000l744000 0c1224000,0 2425000,-415000 3473000,-1201000 1054000,-833000 1723000,-1878000 1933000,-3015000 377000,-2012000 377000,-6366000 0,-8379000z"/>
 </g>
</svg>